<?xml version="1.0" encoding="UTF-8"?>
<svg width="91px" height="22px" viewBox="0 0 91 22" version="1.1" xmlns="http://www.w3.org/2000/svg" xmlns:xlink="http://www.w3.org/1999/xlink">
    <title>landio-logo-white</title>
    <g id="UiCore" stroke="none" stroke-width="1" fill="none" fill-rule="evenodd">
        <g id="Artboard" transform="translate(-1452.000000, -1162.000000)">
            <g id="landio-logo-white" transform="translate(1452.000000, 1162.000000)">
                <g id="Group-10">
                    <polygon id="Fill-1" fill="#FFFFFF" points="10.5352113 0 10.5352113 4.17338697 15.5997035 7.12676056 19.2112676 5.1892466"></polygon>
                    <polygon id="Fill-2" fill="#FF5D0C" points="14.8732394 9.29577465 10.8450704 11.4819398 10.8450704 16.1126761 14.8732394 13.5778754"></polygon>
                    <polygon id="Fill-3" fill="#FFFFFF" points="16.1126761 8.47048757 16.1126761 13.5295554 19.8309859 15.4929577 19.8309859 6.50704225"></polygon>
                    <polygon id="Fill-4" fill="#FF5D0C" points="9.95271384 10.2253521 14.2535211 8.07115123 9.9594136 5.57746479 5.57746479 8.122133"></polygon>
                    <polygon id="Fill-5" fill="#FF5D0C" points="9.29577465 11.4238928 5.26760563 9.29577465 5.26760563 13.5416651 9.29577465 16.1126761"></polygon>
                    <polygon id="Fill-6" fill="#FFFFFF" points="0.61971831 16.810838 9.29577465 22 9.29577465 17.8266553 4.23119476 14.8732394"></polygon>
                    <polygon id="Fill-7" fill="#FFFFFF" points="10.5352113 17.8266553 10.5352113 22 19.2112676 16.810838 15.5997473 14.8732394"></polygon>
                    <polygon id="Fill-8" fill="#FFFFFF" points="9.29577465 0 0.61971831 5.36829849 4.13410858 7.43661972 9.29577465 4.32267521"></polygon>
                    <polygon id="Fill-9" fill="#FFFFFF" points="0 15.4929577 3.71830986 13.5320411 3.71830986 8.58628376 0 6.50704225"></polygon>
                </g>
                <path d="M37.0343662,19.2112676 L37.0343662,16.2663662 L29.9844507,16.2663662 L29.9844507,3.39357746 L26.9056901,3.39357746 L26.9056901,19.2112676 L37.0343662,19.2112676 Z M42.0082254,19.5236056 C43.6368451,19.5236056 44.6854085,18.7650704 45.2431549,17.8949859 C45.2431549,18.3188732 45.2877746,18.9212394 45.3547042,19.2112676 L48.076507,19.2112676 C48.0095775,18.832 47.9426479,18.0511549 47.9426479,17.4710986 L47.9426479,12.0721127 C47.9426479,9.86343662 46.6486761,7.90016901 43.168338,7.90016901 C40.2234366,7.90016901 38.6394366,9.79650704 38.4609577,11.5143662 L41.0935211,12.0721127 C41.1827606,11.1127887 41.8966761,10.2873239 43.1906479,10.2873239 C44.44,10.2873239 45.0423662,10.9343099 45.0423662,11.7151549 C45.0423662,12.0944225 44.8415775,12.4067606 44.2169014,12.496 L41.5174085,12.8975775 C39.688,13.1652958 38.2378592,14.2584789 38.2378592,16.2217465 C38.2378592,17.9396056 39.6656901,19.5236056 42.0082254,19.5236056 Z M42.6329014,17.3149296 C41.6735775,17.3149296 41.2050704,16.6902535 41.2050704,16.0432676 C41.2050704,15.195493 41.8074366,14.7716056 42.5659718,14.6600563 L45.0423662,14.2807887 L45.0423662,14.7716056 C45.0423662,16.7125634 43.8822535,17.3149296 42.6329014,17.3149296 Z M52.8148732,19.2112676 L52.8148732,12.8975775 C52.8148732,11.6259155 53.5734085,10.6219718 54.8673803,10.6219718 C56.2952113,10.6219718 56.8975775,11.5812958 56.8975775,12.808338 L56.8975775,19.2112676 L59.8647887,19.2112676 L59.8647887,12.2952113 C59.8647887,9.88574648 58.6154366,7.94478873 55.8936338,7.94478873 C54.7112113,7.94478873 53.3949296,8.45791549 52.7256338,9.59571831 L52.7256338,8.2348169 L49.847662,8.2348169 L49.847662,19.2112676 L52.8148732,19.2112676 Z M66.3210141,19.4789859 C67.7934648,19.4789859 68.9089577,18.8096901 69.3997746,17.9396056 C69.3997746,18.4527324 69.4667042,18.988169 69.5113239,19.2112676 L72.3446761,19.2112676 C72.3000563,18.7650704 72.2554366,17.9619155 72.2554366,17.2256901 L72.2554366,3.05892958 L69.3328451,3.05892958 L69.3328451,9.328 C69.020507,8.74794366 68.1281127,7.96709859 66.2317746,7.96709859 C63.1307042,7.96709859 60.9666479,10.4881127 60.9666479,13.7007324 C60.9666479,17.0249014 63.1976338,19.4789859 66.3210141,19.4789859 Z M66.6779718,16.8241127 C65.1162817,16.8241127 63.956169,15.664 63.956169,13.7007324 C63.956169,11.7374648 65.1609014,10.6219718 66.6779718,10.6219718 C68.1950423,10.6219718 69.3774648,11.7151549 69.3774648,13.6784225 C69.3774648,15.664 68.1950423,16.8241127 66.6779718,16.8241127 Z M75.856,6.45002817 C76.8822535,6.45002817 77.6854085,5.62456338 77.6854085,4.64292958 C77.6854085,3.61667606 76.8822535,2.79121127 75.856,2.79121127 C74.8520563,2.79121127 74.0265915,3.61667606 74.0265915,4.64292958 C74.0265915,5.62456338 74.8520563,6.45002817 75.856,6.45002817 Z M77.3507606,19.2112676 L77.3507606,8.2348169 L74.3835493,8.2348169 L74.3835493,19.2112676 L77.3507606,19.2112676 Z M84.3647324,19.5459155 C87.6442817,19.5459155 90.1206761,17.091831 90.1206761,13.7230423 C90.1206761,10.3319437 87.6442817,7.90016901 84.3647324,7.90016901 C81.0851831,7.90016901 78.6087887,10.3319437 78.6087887,13.7230423 C78.6087887,17.091831 81.0851831,19.5459155 84.3647324,19.5459155 Z M84.3647324,16.8464225 C82.9145915,16.8464225 81.576,15.7755493 81.576,13.7230423 C81.576,11.6482254 82.9145915,10.599662 84.3647324,10.599662 C85.8148732,10.599662 87.1534648,11.6482254 87.1534648,13.7230423 C87.1534648,15.7978592 85.8148732,16.8464225 84.3647324,16.8464225 Z" id="Landio" fill="#FFFFFF" fill-rule="nonzero"></path>
            </g>
        </g>
    </g>
</svg>